<?xml version="1.0" encoding="UTF-8" ?>
<!DOCTYPE svg PUBLIC "-//W3C//DTD SVG 1.1//EN" "http://www.w3.org/Graphics/SVG/1.1/DTD/svg11.dtd">
<svg width="32pt" height="14pt" viewBox="0 0 36 80" version="1.1" xmlns="http://www.w3.org/2000/svg">
<path fill="#ff2800" d=" M 11.04 0.00 L 25.97 0.00 C 28.77 0.51 32.46 1.38 33.26 4.56 C 33.85 8.07 34.16 11.62 34.58 15.15 C 36.14 25.00 34.87 35.01 35.50 44.92 C 35.37 54.65 36.12 64.39 35.53 74.10 C 35.26 78.48 30.45 80.03 26.73 80.00 L 10.17 80.00 C 7.02 79.80 3.38 79.27 1.83 76.11 C 0.25 70.52 0.46 64.63 1.27 58.93 C 1.71 40.70 0.35 22.31 3.56 4.28 C 4.08 0.82 8.33 0.55 11.04 0.00 Z" />
<path fill="#ffffff" d=" M 7.17 23.40 C 14.10 20.56 22.41 20.29 29.30 23.40 C 28.48 25.38 27.74 27.41 27.01 29.43 C 21.24 29.16 15.46 29.13 9.69 29.45 C 8.93 27.40 8.15 25.35 7.17 23.40 Z" />
<path fill="#ffffff" d=" M 31.64 30.56 C 31.59 37.89 31.80 45.22 31.51 52.55 C 30.38 45.31 29.71 37.73 31.64 30.56 Z" />
<path fill="#ffffff" d=" M 4.55 54.33 C 4.64 46.77 4.54 39.21 4.88 31.65 C 8.20 38.87 5.46 46.88 4.55 54.33 Z" />
<path fill="#ffffff" d=" M 8.95 59.34 C 15.05 59.85 21.23 60.02 27.32 59.29 C 28.04 61.35 28.73 63.42 29.43 65.49 C 22.37 68.05 14.38 68.30 7.32 65.58 C 7.93 63.52 8.48 61.44 8.95 59.34 Z" />
</svg>
